<mxfile host="65bd71144e">
    <diagram id="ftLzmsLyrwE4esRIsy0w" name="network">
        <mxGraphModel dx="1943" dy="525" grid="1" gridSize="10" guides="1" tooltips="1" connect="1" arrows="1" fold="1" page="1" pageScale="1" pageWidth="850" pageHeight="1100" math="0" shadow="0">
            <root>
                <mxCell id="0"/>
                <mxCell id="1" parent="0"/>
                <mxCell id="VholS22kbWtKVHYesf5g-1" value="&amp;nbsp;virtualized environment" style="rounded=0;whiteSpace=wrap;html=1;fillColor=none;verticalAlign=top;align=left;labelPosition=center;verticalLabelPosition=middle;horizontal=1;" parent="1" vertex="1">
                    <mxGeometry x="20" y="50" width="930" height="800" as="geometry"/>
                </mxCell>
                <mxCell id="VholS22kbWtKVHYesf5g-9" style="edgeStyle=orthogonalEdgeStyle;rounded=0;orthogonalLoop=1;jettySize=auto;html=1;entryX=0;entryY=0.5;entryDx=0;entryDy=0;endArrow=none;endFill=0;" parent="1" source="VholS22kbWtKVHYesf5g-2" target="VholS22kbWtKVHYesf5g-6" edge="1">
                    <mxGeometry relative="1" as="geometry"/>
                </mxCell>
                <mxCell id="VholS22kbWtKVHYesf5g-2" value="" style="shape=mxgraph.cisco.routers.router;html=1;pointerEvents=1;dashed=0;fillColor=#036897;strokeColor=#ffffff;strokeWidth=2;verticalLabelPosition=bottom;verticalAlign=top;align=center;outlineConnect=0;" parent="1" vertex="1">
                    <mxGeometry x="-20" y="240" width="78" height="53" as="geometry"/>
                </mxCell>
                <mxCell id="VholS22kbWtKVHYesf5g-4" value="web-frontend-1" style="rounded=0;whiteSpace=wrap;html=1;" parent="1" vertex="1">
                    <mxGeometry x="190" y="190" width="120" height="60" as="geometry"/>
                </mxCell>
                <mxCell id="VholS22kbWtKVHYesf5g-5" value="web-frontend-2" style="rounded=0;whiteSpace=wrap;html=1;" parent="1" vertex="1">
                    <mxGeometry x="190" y="260" width="120" height="60" as="geometry"/>
                </mxCell>
                <mxCell id="VholS22kbWtKVHYesf5g-10" style="edgeStyle=orthogonalEdgeStyle;rounded=0;orthogonalLoop=1;jettySize=auto;html=1;exitX=1;exitY=0.25;exitDx=0;exitDy=0;entryX=0;entryY=0.5;entryDx=0;entryDy=0;endArrow=none;endFill=0;" parent="1" source="VholS22kbWtKVHYesf5g-6" target="VholS22kbWtKVHYesf5g-4" edge="1">
                    <mxGeometry relative="1" as="geometry"/>
                </mxCell>
                <mxCell id="VholS22kbWtKVHYesf5g-11" style="edgeStyle=orthogonalEdgeStyle;rounded=0;orthogonalLoop=1;jettySize=auto;html=1;exitX=1;exitY=0.75;exitDx=0;exitDy=0;entryX=0;entryY=0.5;entryDx=0;entryDy=0;endArrow=none;endFill=0;" parent="1" source="VholS22kbWtKVHYesf5g-6" target="VholS22kbWtKVHYesf5g-5" edge="1">
                    <mxGeometry relative="1" as="geometry"/>
                </mxCell>
                <mxCell id="VholS22kbWtKVHYesf5g-6" value="br-frontend" style="rounded=0;html=1;verticalAlign=bottom;labelPosition=center;verticalLabelPosition=top;align=center;" parent="1" vertex="1">
                    <mxGeometry x="140" y="121.5" width="10" height="290" as="geometry"/>
                </mxCell>
                <mxCell id="VholS22kbWtKVHYesf5g-30" style="edgeStyle=orthogonalEdgeStyle;rounded=0;orthogonalLoop=1;jettySize=auto;html=1;exitX=0;exitY=0.5;exitDx=0;exitDy=0;entryX=1;entryY=0.5;entryDx=0;entryDy=0;entryPerimeter=0;endArrow=none;endFill=0;" parent="1" source="VholS22kbWtKVHYesf5g-7" target="VholS22kbWtKVHYesf5g-2" edge="1">
                    <mxGeometry relative="1" as="geometry">
                        <Array as="points">
                            <mxPoint x="330" y="267"/>
                            <mxPoint x="330" y="450"/>
                            <mxPoint x="110" y="450"/>
                            <mxPoint x="110" y="267"/>
                        </Array>
                    </mxGeometry>
                </mxCell>
                <mxCell id="VholS22kbWtKVHYesf5g-7" value="br-backend" style="rounded=0;html=1;verticalAlign=bottom;labelPosition=center;verticalLabelPosition=top;align=center;" parent="1" vertex="1">
                    <mxGeometry x="370" y="121.5" width="10" height="290" as="geometry"/>
                </mxCell>
                <mxCell id="VholS22kbWtKVHYesf5g-31" style="edgeStyle=orthogonalEdgeStyle;rounded=0;orthogonalLoop=1;jettySize=auto;html=1;exitX=0;exitY=0.5;exitDx=0;exitDy=0;entryX=1;entryY=0.5;entryDx=0;entryDy=0;entryPerimeter=0;endArrow=none;endFill=0;" parent="1" source="VholS22kbWtKVHYesf5g-8" target="VholS22kbWtKVHYesf5g-2" edge="1">
                    <mxGeometry relative="1" as="geometry">
                        <Array as="points">
                            <mxPoint x="600" y="267"/>
                            <mxPoint x="600" y="490"/>
                            <mxPoint x="90" y="490"/>
                            <mxPoint x="90" y="267"/>
                        </Array>
                    </mxGeometry>
                </mxCell>
                <mxCell id="6UqM7nr1BjA8IDK3rxbt-2" style="edgeStyle=orthogonalEdgeStyle;rounded=0;orthogonalLoop=1;jettySize=auto;html=1;endArrow=none;endFill=0;" parent="1" source="VholS22kbWtKVHYesf5g-8" target="6UqM7nr1BjA8IDK3rxbt-1" edge="1">
                    <mxGeometry relative="1" as="geometry">
                        <Array as="points">
                            <mxPoint x="690" y="160"/>
                            <mxPoint x="690" y="140"/>
                        </Array>
                    </mxGeometry>
                </mxCell>
                <mxCell id="VholS22kbWtKVHYesf5g-8" value="br-db" style="rounded=0;html=1;verticalAlign=bottom;labelPosition=center;verticalLabelPosition=top;align=center;" parent="1" vertex="1">
                    <mxGeometry x="640" y="121.5" width="10" height="290" as="geometry"/>
                </mxCell>
                <mxCell id="VholS22kbWtKVHYesf5g-22" style="edgeStyle=orthogonalEdgeStyle;rounded=0;orthogonalLoop=1;jettySize=auto;html=1;exitX=0;exitY=0.5;exitDx=0;exitDy=0;entryX=1;entryY=0.25;entryDx=0;entryDy=0;endArrow=none;endFill=0;" parent="1" source="VholS22kbWtKVHYesf5g-14" target="VholS22kbWtKVHYesf5g-7" edge="1">
                    <mxGeometry relative="1" as="geometry"/>
                </mxCell>
                <mxCell id="VholS22kbWtKVHYesf5g-14" value="application-1" style="rounded=0;whiteSpace=wrap;html=1;" parent="1" vertex="1">
                    <mxGeometry x="450" y="130" width="120" height="60" as="geometry"/>
                </mxCell>
                <mxCell id="VholS22kbWtKVHYesf5g-21" style="edgeStyle=orthogonalEdgeStyle;rounded=0;orthogonalLoop=1;jettySize=auto;html=1;exitX=0;exitY=0.5;exitDx=0;exitDy=0;entryX=1;entryY=0.25;entryDx=0;entryDy=0;endArrow=none;endFill=0;" parent="1" source="VholS22kbWtKVHYesf5g-15" target="VholS22kbWtKVHYesf5g-7" edge="1">
                    <mxGeometry relative="1" as="geometry"/>
                </mxCell>
                <mxCell id="VholS22kbWtKVHYesf5g-15" value="k8s-1" style="rounded=0;whiteSpace=wrap;html=1;" parent="1" vertex="1">
                    <mxGeometry x="450" y="206.5" width="120" height="60" as="geometry"/>
                </mxCell>
                <mxCell id="VholS22kbWtKVHYesf5g-20" style="edgeStyle=orthogonalEdgeStyle;rounded=0;orthogonalLoop=1;jettySize=auto;html=1;exitX=0;exitY=0.5;exitDx=0;exitDy=0;entryX=1;entryY=0.75;entryDx=0;entryDy=0;endArrow=none;endFill=0;" parent="1" source="VholS22kbWtKVHYesf5g-16" target="VholS22kbWtKVHYesf5g-7" edge="1">
                    <mxGeometry relative="1" as="geometry"/>
                </mxCell>
                <mxCell id="VholS22kbWtKVHYesf5g-16" value="k8s-2" style="rounded=0;whiteSpace=wrap;html=1;" parent="1" vertex="1">
                    <mxGeometry x="450" y="276.5" width="120" height="60" as="geometry"/>
                </mxCell>
                <mxCell id="VholS22kbWtKVHYesf5g-18" style="edgeStyle=orthogonalEdgeStyle;rounded=0;orthogonalLoop=1;jettySize=auto;html=1;exitX=0;exitY=0.5;exitDx=0;exitDy=0;entryX=1;entryY=0.75;entryDx=0;entryDy=0;endArrow=none;endFill=0;" parent="1" source="VholS22kbWtKVHYesf5g-17" target="VholS22kbWtKVHYesf5g-7" edge="1">
                    <mxGeometry relative="1" as="geometry"/>
                </mxCell>
                <mxCell id="VholS22kbWtKVHYesf5g-17" value="k8s-3" style="rounded=0;whiteSpace=wrap;html=1;" parent="1" vertex="1">
                    <mxGeometry x="450" y="346.5" width="120" height="60" as="geometry"/>
                </mxCell>
                <mxCell id="VholS22kbWtKVHYesf5g-29" style="edgeStyle=orthogonalEdgeStyle;rounded=0;orthogonalLoop=1;jettySize=auto;html=1;exitX=0;exitY=0.5;exitDx=0;exitDy=0;entryX=1;entryY=0.5;entryDx=0;entryDy=0;endArrow=none;endFill=0;" parent="1" source="VholS22kbWtKVHYesf5g-24" target="VholS22kbWtKVHYesf5g-8" edge="1">
                    <mxGeometry relative="1" as="geometry"/>
                </mxCell>
                <mxCell id="VholS22kbWtKVHYesf5g-24" value="db-mysql" style="rounded=0;whiteSpace=wrap;html=1;" parent="1" vertex="1">
                    <mxGeometry x="730" y="250" width="120" height="60" as="geometry"/>
                </mxCell>
                <mxCell id="VholS22kbWtKVHYesf5g-35" style="edgeStyle=orthogonalEdgeStyle;rounded=0;orthogonalLoop=1;jettySize=auto;html=1;exitX=0;exitY=0.5;exitDx=0;exitDy=0;entryX=1;entryY=0.75;entryDx=0;entryDy=0;endArrow=none;endFill=0;" parent="1" source="VholS22kbWtKVHYesf5g-32" target="VholS22kbWtKVHYesf5g-8" edge="1">
                    <mxGeometry relative="1" as="geometry"/>
                </mxCell>
                <mxCell id="VholS22kbWtKVHYesf5g-32" value="db-psql" style="rounded=0;whiteSpace=wrap;html=1;" parent="1" vertex="1">
                    <mxGeometry x="730" y="320" width="120" height="60" as="geometry"/>
                </mxCell>
                <mxCell id="VholS22kbWtKVHYesf5g-34" style="edgeStyle=orthogonalEdgeStyle;rounded=0;orthogonalLoop=1;jettySize=auto;html=1;exitX=0;exitY=0.5;exitDx=0;exitDy=0;entryX=1;entryY=0.25;entryDx=0;entryDy=0;endArrow=none;endFill=0;" parent="1" source="VholS22kbWtKVHYesf5g-33" target="VholS22kbWtKVHYesf5g-8" edge="1">
                    <mxGeometry relative="1" as="geometry"/>
                </mxCell>
                <mxCell id="VholS22kbWtKVHYesf5g-33" value="db-redis" style="rounded=0;whiteSpace=wrap;html=1;" parent="1" vertex="1">
                    <mxGeometry x="730" y="180" width="120" height="60" as="geometry"/>
                </mxCell>
                <mxCell id="VholS22kbWtKVHYesf5g-38" value="192.168.100.0/24" style="text;html=1;align=center;verticalAlign=middle;resizable=0;points=[];autosize=1;strokeColor=none;fillColor=none;" parent="1" vertex="1">
                    <mxGeometry x="150" y="391.5" width="110" height="20" as="geometry"/>
                </mxCell>
                <mxCell id="VholS22kbWtKVHYesf5g-39" value="192.168.101.0/24" style="text;html=1;align=center;verticalAlign=middle;resizable=0;points=[];autosize=1;strokeColor=none;fillColor=none;" parent="1" vertex="1">
                    <mxGeometry x="370" y="420" width="110" height="20" as="geometry"/>
                </mxCell>
                <mxCell id="VholS22kbWtKVHYesf5g-40" value="192.168.102.0/24" style="text;html=1;align=center;verticalAlign=middle;resizable=0;points=[];autosize=1;strokeColor=none;fillColor=none;" parent="1" vertex="1">
                    <mxGeometry x="660" y="391.5" width="110" height="20" as="geometry"/>
                </mxCell>
                <mxCell id="VholS22kbWtKVHYesf5g-45" style="edgeStyle=orthogonalEdgeStyle;rounded=0;orthogonalLoop=1;jettySize=auto;html=1;exitX=0;exitY=0.5;exitDx=0;exitDy=0;entryX=1;entryY=0.5;entryDx=0;entryDy=0;entryPerimeter=0;endArrow=none;endFill=0;" parent="1" source="VholS22kbWtKVHYesf5g-41" target="VholS22kbWtKVHYesf5g-2" edge="1">
                    <mxGeometry relative="1" as="geometry">
                        <Array as="points">
                            <mxPoint x="70" y="675"/>
                            <mxPoint x="70" y="267"/>
                        </Array>
                    </mxGeometry>
                </mxCell>
                <mxCell id="VholS22kbWtKVHYesf5g-41" value="br-employee" style="rounded=0;html=1;verticalAlign=bottom;labelPosition=center;verticalLabelPosition=top;align=center;" parent="1" vertex="1">
                    <mxGeometry x="140" y="530" width="10" height="290" as="geometry"/>
                </mxCell>
                <mxCell id="VholS22kbWtKVHYesf5g-44" style="edgeStyle=orthogonalEdgeStyle;rounded=0;orthogonalLoop=1;jettySize=auto;html=1;exitX=0;exitY=0.5;exitDx=0;exitDy=0;entryX=1;entryY=0.25;entryDx=0;entryDy=0;endArrow=none;endFill=0;" parent="1" source="VholS22kbWtKVHYesf5g-42" target="VholS22kbWtKVHYesf5g-41" edge="1">
                    <mxGeometry relative="1" as="geometry"/>
                </mxCell>
                <mxCell id="VholS22kbWtKVHYesf5g-42" value="terminal-sever" style="rounded=0;whiteSpace=wrap;html=1;" parent="1" vertex="1">
                    <mxGeometry x="190" y="540" width="120" height="60" as="geometry"/>
                </mxCell>
                <mxCell id="VholS22kbWtKVHYesf5g-46" value="192.168.200.0/24" style="text;html=1;align=center;verticalAlign=middle;resizable=0;points=[];autosize=1;strokeColor=none;fillColor=none;" parent="1" vertex="1">
                    <mxGeometry x="150" y="800" width="110" height="20" as="geometry"/>
                </mxCell>
                <mxCell id="VholS22kbWtKVHYesf5g-48" style="edgeStyle=orthogonalEdgeStyle;rounded=0;orthogonalLoop=1;jettySize=auto;html=1;exitX=0;exitY=0.5;exitDx=0;exitDy=0;entryX=1;entryY=0.75;entryDx=0;entryDy=0;endArrow=none;endFill=0;" parent="1" source="VholS22kbWtKVHYesf5g-47" target="VholS22kbWtKVHYesf5g-41" edge="1">
                    <mxGeometry relative="1" as="geometry"/>
                </mxCell>
                <mxCell id="VholS22kbWtKVHYesf5g-47" value="openvpn-gateway" style="rounded=0;whiteSpace=wrap;html=1;" parent="1" vertex="1">
                    <mxGeometry x="190" y="680" width="120" height="60" as="geometry"/>
                </mxCell>
                <mxCell id="6UqM7nr1BjA8IDK3rxbt-1" value="minio" style="rounded=0;whiteSpace=wrap;html=1;" parent="1" vertex="1">
                    <mxGeometry x="730" y="110" width="120" height="60" as="geometry"/>
                </mxCell>
            </root>
        </mxGraphModel>
    </diagram>
    <diagram id="Qe_M5C1h5xP2IZ0pT3mp" name="logical">
        <mxGraphModel dx="1943" dy="1625" grid="1" gridSize="10" guides="1" tooltips="1" connect="1" arrows="1" fold="1" page="1" pageScale="1" pageWidth="850" pageHeight="1100" math="0" shadow="0">
            <root>
                <mxCell id="wbO2mwogudSXp7cOLH6--0"/>
                <mxCell id="wbO2mwogudSXp7cOLH6--1" parent="wbO2mwogudSXp7cOLH6--0"/>
                <mxCell id="dArvH_cP-AHBWgPdKwYx-0" value="&amp;nbsp;web-frontend-1" style="rounded=0;whiteSpace=wrap;html=1;align=left;verticalAlign=top;labelPosition=center;verticalLabelPosition=middle;fillColor=#f5f5f5;fontColor=#333333;strokeColor=#666666;" vertex="1" parent="wbO2mwogudSXp7cOLH6--1">
                    <mxGeometry x="270" y="130" width="460" height="230" as="geometry"/>
                </mxCell>
                <mxCell id="a-U5GtaUUSnZACJ-5a6o-0" value="&amp;nbsp;web-frontend-2" style="rounded=0;whiteSpace=wrap;html=1;align=left;verticalAlign=top;labelPosition=center;verticalLabelPosition=middle;fillColor=#f5f5f5;fontColor=#333333;strokeColor=#666666;" vertex="1" parent="wbO2mwogudSXp7cOLH6--1">
                    <mxGeometry x="270" y="470" width="460" height="230" as="geometry"/>
                </mxCell>
                <mxCell id="a-U5GtaUUSnZACJ-5a6o-16" style="html=1;entryX=0;entryY=0.5;entryDx=0;entryDy=0;exitX=1;exitY=0.5;exitDx=0;exitDy=0;" edge="1" parent="wbO2mwogudSXp7cOLH6--1" source="a-U5GtaUUSnZACJ-5a6o-1" target="a-U5GtaUUSnZACJ-5a6o-12">
                    <mxGeometry relative="1" as="geometry"/>
                </mxCell>
                <mxCell id="a-U5GtaUUSnZACJ-5a6o-21" value="HTTPS&lt;br&gt;Using internal cert" style="edgeLabel;html=1;align=center;verticalAlign=middle;resizable=0;points=[];" vertex="1" connectable="0" parent="a-U5GtaUUSnZACJ-5a6o-16">
                    <mxGeometry x="-0.2084" y="-2" relative="1" as="geometry">
                        <mxPoint x="16" y="25" as="offset"/>
                    </mxGeometry>
                </mxCell>
                <mxCell id="a-U5GtaUUSnZACJ-5a6o-19" value="HTTP" style="edgeStyle=none;html=1;exitX=1;exitY=0.5;exitDx=0;exitDy=0;entryX=0;entryY=0.5;entryDx=0;entryDy=0;" edge="1" parent="wbO2mwogudSXp7cOLH6--1" source="a-U5GtaUUSnZACJ-5a6o-1" target="a-U5GtaUUSnZACJ-5a6o-2">
                    <mxGeometry relative="1" as="geometry"/>
                </mxCell>
                <mxCell id="a-U5GtaUUSnZACJ-5a6o-1" value="HAProxy" style="rounded=0;whiteSpace=wrap;html=1;" vertex="1" parent="wbO2mwogudSXp7cOLH6--1">
                    <mxGeometry x="370" y="170" width="120" height="160" as="geometry"/>
                </mxCell>
                <mxCell id="a-U5GtaUUSnZACJ-5a6o-35" style="edgeStyle=none;html=1;entryX=0;entryY=0.5;entryDx=0;entryDy=0;" edge="1" parent="wbO2mwogudSXp7cOLH6--1" source="a-U5GtaUUSnZACJ-5a6o-2" target="a-U5GtaUUSnZACJ-5a6o-3">
                    <mxGeometry relative="1" as="geometry"/>
                </mxCell>
                <mxCell id="a-U5GtaUUSnZACJ-5a6o-36" style="edgeStyle=none;html=1;entryX=0;entryY=0.5;entryDx=0;entryDy=0;" edge="1" parent="wbO2mwogudSXp7cOLH6--1" source="a-U5GtaUUSnZACJ-5a6o-2" target="a-U5GtaUUSnZACJ-5a6o-5">
                    <mxGeometry relative="1" as="geometry"/>
                </mxCell>
                <mxCell id="a-U5GtaUUSnZACJ-5a6o-37" style="edgeStyle=none;html=1;entryX=0;entryY=0.5;entryDx=0;entryDy=0;" edge="1" parent="wbO2mwogudSXp7cOLH6--1" source="a-U5GtaUUSnZACJ-5a6o-2" target="a-U5GtaUUSnZACJ-5a6o-4">
                    <mxGeometry relative="1" as="geometry"/>
                </mxCell>
                <mxCell id="a-U5GtaUUSnZACJ-5a6o-2" value="NGINX" style="rounded=0;whiteSpace=wrap;html=1;" vertex="1" parent="wbO2mwogudSXp7cOLH6--1">
                    <mxGeometry x="580" y="170" width="120" height="160" as="geometry"/>
                </mxCell>
                <mxCell id="a-U5GtaUUSnZACJ-5a6o-3" value="backend-1" style="rounded=0;whiteSpace=wrap;html=1;" vertex="1" parent="wbO2mwogudSXp7cOLH6--1">
                    <mxGeometry x="840" y="320" width="120" height="60" as="geometry"/>
                </mxCell>
                <mxCell id="a-U5GtaUUSnZACJ-5a6o-4" value="backend-3" style="rounded=0;whiteSpace=wrap;html=1;" vertex="1" parent="wbO2mwogudSXp7cOLH6--1">
                    <mxGeometry x="840" y="460" width="120" height="60" as="geometry"/>
                </mxCell>
                <mxCell id="a-U5GtaUUSnZACJ-5a6o-5" value="backend-2" style="rounded=0;whiteSpace=wrap;html=1;" vertex="1" parent="wbO2mwogudSXp7cOLH6--1">
                    <mxGeometry x="840" y="390" width="120" height="60" as="geometry"/>
                </mxCell>
                <mxCell id="a-U5GtaUUSnZACJ-5a6o-6" value="Keepalived" style="rounded=0;whiteSpace=wrap;html=1;" vertex="1" parent="wbO2mwogudSXp7cOLH6--1">
                    <mxGeometry x="280" y="170" width="70" height="60" as="geometry"/>
                </mxCell>
                <mxCell id="a-U5GtaUUSnZACJ-5a6o-8" style="edgeStyle=orthogonalEdgeStyle;html=1;entryX=0.5;entryY=0;entryDx=0;entryDy=0;" edge="1" parent="wbO2mwogudSXp7cOLH6--1" source="a-U5GtaUUSnZACJ-5a6o-7" target="a-U5GtaUUSnZACJ-5a6o-2">
                    <mxGeometry relative="1" as="geometry"/>
                </mxCell>
                <mxCell id="a-U5GtaUUSnZACJ-5a6o-9" value="Internal cert" style="edgeLabel;html=1;align=center;verticalAlign=middle;resizable=0;points=[];" vertex="1" connectable="0" parent="a-U5GtaUUSnZACJ-5a6o-8">
                    <mxGeometry x="-0.4353" y="4" relative="1" as="geometry">
                        <mxPoint as="offset"/>
                    </mxGeometry>
                </mxCell>
                <mxCell id="a-U5GtaUUSnZACJ-5a6o-14" style="edgeStyle=orthogonalEdgeStyle;html=1;entryX=0.5;entryY=0;entryDx=0;entryDy=0;" edge="1" parent="wbO2mwogudSXp7cOLH6--1" source="a-U5GtaUUSnZACJ-5a6o-7" target="a-U5GtaUUSnZACJ-5a6o-12">
                    <mxGeometry relative="1" as="geometry">
                        <Array as="points">
                            <mxPoint x="740" y="-30"/>
                            <mxPoint x="740" y="430"/>
                            <mxPoint x="640" y="430"/>
                        </Array>
                    </mxGeometry>
                </mxCell>
                <mxCell id="a-U5GtaUUSnZACJ-5a6o-15" value="interal cert" style="edgeLabel;html=1;align=center;verticalAlign=middle;resizable=0;points=[];" vertex="1" connectable="0" parent="a-U5GtaUUSnZACJ-5a6o-14">
                    <mxGeometry x="-0.7852" y="2" relative="1" as="geometry">
                        <mxPoint as="offset"/>
                    </mxGeometry>
                </mxCell>
                <mxCell id="a-U5GtaUUSnZACJ-5a6o-39" value="Internal cert" style="edgeStyle=orthogonalEdgeStyle;html=1;entryX=1;entryY=0.5;entryDx=0;entryDy=0;" edge="1" parent="wbO2mwogudSXp7cOLH6--1" source="a-U5GtaUUSnZACJ-5a6o-7" target="a-U5GtaUUSnZACJ-5a6o-3">
                    <mxGeometry x="0.0526" y="10" relative="1" as="geometry">
                        <Array as="points">
                            <mxPoint x="840" y="210"/>
                            <mxPoint x="990" y="210"/>
                            <mxPoint x="990" y="350"/>
                        </Array>
                        <mxPoint as="offset"/>
                    </mxGeometry>
                </mxCell>
                <mxCell id="a-U5GtaUUSnZACJ-5a6o-41" style="edgeStyle=orthogonalEdgeStyle;html=1;entryX=1;entryY=0.5;entryDx=0;entryDy=0;" edge="1" parent="wbO2mwogudSXp7cOLH6--1" source="a-U5GtaUUSnZACJ-5a6o-7" target="a-U5GtaUUSnZACJ-5a6o-5">
                    <mxGeometry relative="1" as="geometry">
                        <Array as="points">
                            <mxPoint x="840" y="210"/>
                            <mxPoint x="990" y="210"/>
                            <mxPoint x="990" y="420"/>
                        </Array>
                    </mxGeometry>
                </mxCell>
                <mxCell id="a-U5GtaUUSnZACJ-5a6o-42" style="edgeStyle=orthogonalEdgeStyle;html=1;entryX=1;entryY=0.5;entryDx=0;entryDy=0;" edge="1" parent="wbO2mwogudSXp7cOLH6--1" source="a-U5GtaUUSnZACJ-5a6o-7" target="a-U5GtaUUSnZACJ-5a6o-4">
                    <mxGeometry relative="1" as="geometry">
                        <Array as="points">
                            <mxPoint x="840" y="210"/>
                            <mxPoint x="990" y="210"/>
                            <mxPoint x="990" y="490"/>
                        </Array>
                    </mxGeometry>
                </mxCell>
                <mxCell id="a-U5GtaUUSnZACJ-5a6o-7" value="internal CA" style="rounded=0;whiteSpace=wrap;html=1;" vertex="1" parent="wbO2mwogudSXp7cOLH6--1">
                    <mxGeometry x="780" y="-60" width="120" height="60" as="geometry"/>
                </mxCell>
                <mxCell id="a-U5GtaUUSnZACJ-5a6o-17" style="edgeStyle=none;html=1;exitX=1;exitY=0.5;exitDx=0;exitDy=0;entryX=0;entryY=0.5;entryDx=0;entryDy=0;" edge="1" parent="wbO2mwogudSXp7cOLH6--1" source="a-U5GtaUUSnZACJ-5a6o-11" target="a-U5GtaUUSnZACJ-5a6o-2">
                    <mxGeometry relative="1" as="geometry"/>
                </mxCell>
                <mxCell id="a-U5GtaUUSnZACJ-5a6o-20" value="HTTP" style="edgeStyle=none;html=1;exitX=1;exitY=0.5;exitDx=0;exitDy=0;entryX=0;entryY=0.5;entryDx=0;entryDy=0;" edge="1" parent="wbO2mwogudSXp7cOLH6--1" source="a-U5GtaUUSnZACJ-5a6o-11" target="a-U5GtaUUSnZACJ-5a6o-12">
                    <mxGeometry relative="1" as="geometry"/>
                </mxCell>
                <mxCell id="a-U5GtaUUSnZACJ-5a6o-11" value="HAProxy" style="rounded=0;whiteSpace=wrap;html=1;" vertex="1" parent="wbO2mwogudSXp7cOLH6--1">
                    <mxGeometry x="370" y="510" width="120" height="160" as="geometry"/>
                </mxCell>
                <mxCell id="a-U5GtaUUSnZACJ-5a6o-31" style="edgeStyle=none;html=1;entryX=0;entryY=0.5;entryDx=0;entryDy=0;" edge="1" parent="wbO2mwogudSXp7cOLH6--1" source="a-U5GtaUUSnZACJ-5a6o-12" target="a-U5GtaUUSnZACJ-5a6o-4">
                    <mxGeometry relative="1" as="geometry"/>
                </mxCell>
                <mxCell id="a-U5GtaUUSnZACJ-5a6o-32" style="edgeStyle=none;html=1;entryX=0;entryY=0.5;entryDx=0;entryDy=0;" edge="1" parent="wbO2mwogudSXp7cOLH6--1" source="a-U5GtaUUSnZACJ-5a6o-12" target="a-U5GtaUUSnZACJ-5a6o-5">
                    <mxGeometry relative="1" as="geometry"/>
                </mxCell>
                <mxCell id="a-U5GtaUUSnZACJ-5a6o-33" style="edgeStyle=none;html=1;entryX=0;entryY=0.5;entryDx=0;entryDy=0;" edge="1" parent="wbO2mwogudSXp7cOLH6--1" source="a-U5GtaUUSnZACJ-5a6o-12" target="a-U5GtaUUSnZACJ-5a6o-3">
                    <mxGeometry relative="1" as="geometry"/>
                </mxCell>
                <mxCell id="a-U5GtaUUSnZACJ-5a6o-12" value="NGINX" style="rounded=0;whiteSpace=wrap;html=1;" vertex="1" parent="wbO2mwogudSXp7cOLH6--1">
                    <mxGeometry x="580" y="510" width="120" height="160" as="geometry"/>
                </mxCell>
                <mxCell id="a-U5GtaUUSnZACJ-5a6o-13" value="Keepalived" style="rounded=0;whiteSpace=wrap;html=1;" vertex="1" parent="wbO2mwogudSXp7cOLH6--1">
                    <mxGeometry x="280" y="610" width="70" height="60" as="geometry"/>
                </mxCell>
                <mxCell id="a-U5GtaUUSnZACJ-5a6o-23" style="edgeStyle=orthogonalEdgeStyle;html=1;entryX=0.5;entryY=0;entryDx=0;entryDy=0;" edge="1" parent="wbO2mwogudSXp7cOLH6--1" source="a-U5GtaUUSnZACJ-5a6o-22" target="a-U5GtaUUSnZACJ-5a6o-1">
                    <mxGeometry relative="1" as="geometry"/>
                </mxCell>
                <mxCell id="a-U5GtaUUSnZACJ-5a6o-24" style="edgeStyle=orthogonalEdgeStyle;html=1;entryX=0.5;entryY=0;entryDx=0;entryDy=0;" edge="1" parent="wbO2mwogudSXp7cOLH6--1" source="a-U5GtaUUSnZACJ-5a6o-22" target="a-U5GtaUUSnZACJ-5a6o-11">
                    <mxGeometry relative="1" as="geometry">
                        <Array as="points">
                            <mxPoint x="250" y="-30"/>
                            <mxPoint x="250" y="420"/>
                            <mxPoint x="430" y="420"/>
                        </Array>
                    </mxGeometry>
                </mxCell>
                <mxCell id="a-U5GtaUUSnZACJ-5a6o-22" value="Cert management" style="rounded=0;whiteSpace=wrap;html=1;" vertex="1" parent="wbO2mwogudSXp7cOLH6--1">
                    <mxGeometry x="430" y="-60" width="120" height="60" as="geometry"/>
                </mxCell>
                <mxCell id="a-U5GtaUUSnZACJ-5a6o-28" style="html=1;dashed=1;" edge="1" parent="wbO2mwogudSXp7cOLH6--1" source="a-U5GtaUUSnZACJ-5a6o-25" target="a-U5GtaUUSnZACJ-5a6o-11">
                    <mxGeometry relative="1" as="geometry"/>
                </mxCell>
                <mxCell id="a-U5GtaUUSnZACJ-5a6o-29" style="edgeStyle=none;html=1;exitX=1;exitY=0.5;exitDx=0;exitDy=0;entryX=0;entryY=0.5;entryDx=0;entryDy=0;" edge="1" parent="wbO2mwogudSXp7cOLH6--1" source="a-U5GtaUUSnZACJ-5a6o-25" target="a-U5GtaUUSnZACJ-5a6o-1">
                    <mxGeometry relative="1" as="geometry"/>
                </mxCell>
                <mxCell id="a-U5GtaUUSnZACJ-5a6o-25" value="NAT" style="rounded=0;whiteSpace=wrap;html=1;verticalAlign=bottom;labelPosition=center;verticalLabelPosition=top;align=center;" vertex="1" parent="wbO2mwogudSXp7cOLH6--1">
                    <mxGeometry x="50" y="220" width="20" height="370" as="geometry"/>
                </mxCell>
                <mxCell id="a-U5GtaUUSnZACJ-5a6o-27" style="edgeStyle=orthogonalEdgeStyle;html=1;" edge="1" parent="wbO2mwogudSXp7cOLH6--1" source="a-U5GtaUUSnZACJ-5a6o-26" target="a-U5GtaUUSnZACJ-5a6o-25">
                    <mxGeometry relative="1" as="geometry"/>
                </mxCell>
                <mxCell id="a-U5GtaUUSnZACJ-5a6o-26" value="User" style="shape=mxgraph.cisco.computers_and_peripherals.pc;html=1;pointerEvents=1;dashed=0;fillColor=#036897;strokeColor=#ffffff;strokeWidth=2;verticalLabelPosition=bottom;verticalAlign=top;align=center;outlineConnect=0;" vertex="1" parent="wbO2mwogudSXp7cOLH6--1">
                    <mxGeometry x="-180" y="370" width="78" height="70" as="geometry"/>
                </mxCell>
                <mxCell id="a-U5GtaUUSnZACJ-5a6o-30" value="Forward traffic based on floating IP" style="text;html=1;align=center;verticalAlign=middle;resizable=0;points=[];autosize=1;strokeColor=none;fillColor=none;" vertex="1" parent="wbO2mwogudSXp7cOLH6--1">
                    <mxGeometry x="70" y="430" width="220" height="20" as="geometry"/>
                </mxCell>
                <mxCell id="a-U5GtaUUSnZACJ-5a6o-38" value="HTTPS&lt;br&gt;Using internal cert" style="edgeLabel;html=1;align=center;verticalAlign=middle;resizable=0;points=[];labelBackgroundColor=none;" vertex="1" connectable="0" parent="wbO2mwogudSXp7cOLH6--1">
                    <mxGeometry x="789.9983041882926" y="405.00492933135973" as="geometry"/>
                </mxCell>
            </root>
        </mxGraphModel>
    </diagram>
</mxfile>
